<svg width="16" height="16" viewBox="0 0 16 16" fill="none" xmlns="http://www.w3.org/2000/svg">
<g clip-path="url(#clip0_2009_5864)">
<path d="M6.66675 8.66666C6.95305 9.04942 7.31832 9.36612 7.73778 9.59529C8.15724 9.82446 8.62109 9.96074 9.09785 9.99489C9.57461 10.029 10.0531 9.96024 10.501 9.79318C10.9488 9.62613 11.3555 9.36471 11.6934 9.02666L13.6934 7.02666C14.3006 6.39799 14.6366 5.55598 14.629 4.68199C14.6214 3.808 14.2708 2.97196 13.6528 2.35394C13.0348 1.73591 12.1987 1.38535 11.3248 1.37775C10.4508 1.37016 9.60876 1.70614 8.98008 2.31333L7.83341 3.45333" stroke="white" stroke-width="1.33333" stroke-linecap="round" stroke-linejoin="round"/>
<path d="M9.33322 7.33335C9.04692 6.9506 8.68165 6.6339 8.26219 6.40472C7.84273 6.17555 7.37888 6.03927 6.90212 6.00513C6.42536 5.97098 5.94683 6.03977 5.49899 6.20683C5.05115 6.37389 4.64448 6.6353 4.30656 6.97335L2.30656 8.97335C1.69936 9.60203 1.36338 10.444 1.37098 11.318C1.37857 12.192 1.72913 13.0281 2.34716 13.6461C2.96519 14.2641 3.80123 14.6147 4.67522 14.6223C5.54921 14.6299 6.39121 14.2939 7.01989 13.6867L8.15989 12.5467" stroke="white" stroke-width="1.33333" stroke-linecap="round" stroke-linejoin="round"/>
</g>
<defs>
<clipPath id="clip0_2009_5864">
<rect width="16" height="16" fill="white"/>
</clipPath>
</defs>
</svg>
