<svg width="16" height="16" viewBox="0 0 16 16" fill="none" xmlns="http://www.w3.org/2000/svg">
<path d="M6.66666 8.66672C6.95296 9.04948 7.31823 9.36618 7.73769 9.59535C8.15715 9.82452 8.62099 9.9608 9.09776 9.99495C9.57452 10.0291 10.053 9.9603 10.5009 9.79325C10.9487 9.62619 11.3554 9.36477 11.6933 9.02672L13.6933 7.02672C14.3005 6.39805 14.6365 5.55604 14.6289 4.68205C14.6213 3.80806 14.2707 2.97202 13.6527 2.354C13.0347 1.73597 12.1986 1.38541 11.3247 1.37781C10.4507 1.37022 9.60866 1.7062 8.97999 2.31339L7.83332 3.45339" stroke="#0A0A0A" stroke-width="1.33333" stroke-linecap="round" stroke-linejoin="round"/>
<path d="M9.33331 7.33332C9.04701 6.95057 8.68174 6.63387 8.26228 6.40469C7.84282 6.17552 7.37898 6.03924 6.90221 6.0051C6.42545 5.97095 5.94692 6.03974 5.49908 6.2068C5.05124 6.37386 4.64457 6.63527 4.30665 6.97332L2.30665 8.97332C1.69945 9.60199 1.36347 10.444 1.37107 11.318C1.37866 12.192 1.72922 13.028 2.34725 13.646C2.96528 14.2641 3.80132 14.6146 4.67531 14.6222C5.5493 14.6298 6.39131 14.2938 7.01998 13.6867L8.15998 12.5467" stroke="#0A0A0A" stroke-width="1.33333" stroke-linecap="round" stroke-linejoin="round"/>
</svg>
