<svg width="16" height="16" viewBox="0 0 16 16" fill="none" xmlns="http://www.w3.org/2000/svg">
<path d="M10.6668 6.66667C10.6668 7.37392 10.3859 8.05219 9.88578 8.55229C9.38568 9.05239 8.70741 9.33334 8.00016 9.33334C7.29292 9.33334 6.61464 9.05239 6.11454 8.55229C5.61445 8.05219 5.3335 7.37392 5.3335 6.66667" stroke="#030213" stroke-width="1.33333" stroke-linecap="round" stroke-linejoin="round"/>
<path d="M2.06885 4.02266H13.9315" stroke="#030213" stroke-width="1.33333" stroke-linecap="round" stroke-linejoin="round"/>
<path d="M2.26667 3.64466C2.09357 3.87546 2 4.15617 2 4.44466V13.3333C2 13.6869 2.14048 14.0261 2.39052 14.2761C2.64057 14.5262 2.97971 14.6667 3.33333 14.6667H12.6667C13.0203 14.6667 13.3594 14.5262 13.6095 14.2761C13.8595 14.0261 14 13.6869 14 13.3333V4.44466C14 4.15617 13.9064 3.87546 13.7333 3.64466L12.4 1.86666C12.2758 1.70107 12.1148 1.56666 11.9296 1.47409C11.7445 1.38152 11.5403 1.33333 11.3333 1.33333H4.66667C4.45967 1.33333 4.25552 1.38152 4.07038 1.47409C3.88524 1.56666 3.7242 1.70107 3.6 1.86666L2.26667 3.64466Z" stroke="#030213" stroke-width="1.33333" stroke-linecap="round" stroke-linejoin="round"/>
</svg>
