<svg width="16" height="16" viewBox="0 0 16 16" fill="none" xmlns="http://www.w3.org/2000/svg">
<path d="M10.6667 14V12.6667C10.6667 11.9594 10.3858 11.2811 9.88566 10.781C9.38556 10.281 8.70728 10 8.00004 10H4.00004C3.2928 10 2.61452 10.281 2.11442 10.781C1.61433 11.2811 1.33337 11.9594 1.33337 12.6667V14" stroke="#0A0A0A" stroke-width="1.33333" stroke-linecap="round" stroke-linejoin="round"/>
<path d="M10.6666 2.08534C11.2385 2.23359 11.7449 2.56752 12.1064 3.03472C12.4679 3.50192 12.6641 4.07594 12.6641 4.66668C12.6641 5.25742 12.4679 5.83144 12.1064 6.29863C11.7449 6.76583 11.2385 7.09976 10.6666 7.24801" stroke="#0A0A0A" stroke-width="1.33333" stroke-linecap="round" stroke-linejoin="round"/>
<path d="M14.6666 14V12.6667C14.6662 12.0758 14.4695 11.5019 14.1075 11.0349C13.7455 10.5679 13.2387 10.2344 12.6666 10.0867" stroke="#0A0A0A" stroke-width="1.33333" stroke-linecap="round" stroke-linejoin="round"/>
<path d="M6.00004 7.33333C7.4728 7.33333 8.66671 6.13943 8.66671 4.66667C8.66671 3.19391 7.4728 2 6.00004 2C4.52728 2 3.33337 3.19391 3.33337 4.66667C3.33337 6.13943 4.52728 7.33333 6.00004 7.33333Z" stroke="#0A0A0A" stroke-width="1.33333" stroke-linecap="round" stroke-linejoin="round"/>
</svg>
